<svg xmlns="http://www.w3.org/2000/svg" xmlns:xlink="http://www.w3.org/1999/xlink" width="2300" height="297.354" viewBox="0 0 2300 297.354">
  <defs>
    <clipPath id="clip-path">
      <path id="Path_23" data-name="Path 23" d="M0,193.823H2300V-103.531H0Z" transform="translate(0 103.531)" fill="none"/>
    </clipPath>
  </defs>
  <g id="Group_126" data-name="Group 126" transform="translate(0 103.531)">
    <g id="Group_113" data-name="Group 113" transform="translate(0 -94.214)">
      <path id="Path_13" data-name="Path 13" d="M70.506,0-37.661,283.579H-2.414l26.332-70.9h134.5l26.332,70.9h35.247L111.825,0ZM89.953,36.057h2.43l56.308,150.7H33.64Z" transform="translate(37.661)" fill="#1c1c1c"/>
    </g>
    <g id="Group_123" data-name="Group 123" transform="translate(0.001 -103.531)" clip-path="url(#clip-path)">
      <g id="Group_114" data-name="Group 114" transform="translate(288.461 78.186)">
        <path id="Path_14" data-name="Path 14" d="M200.69,55.19V185.232H168.281V61.673c0-40.109-15.8-63.6-50.234-63.6s-55.1,23.494-55.1,63.6V185.232H30.542V61.673c0-40.109-15.8-63.6-50.236-63.6-34.029,0-55.1,23.494-55.1,63.6V185.232H-107.2V-25.43H-74.79V12.246C-69.117-3.145-49.67-29.48-7.944-29.48c28.764,0,54.283,12.56,65.223,44.561,6.482-16.61,26.737-44.561,71.3-44.561,40.106,0,72.111,22.687,72.111,84.67" transform="translate(107.199 29.48)" fill="#1c1c1c"/>
      </g>
      <g id="Group_115" data-name="Group 115" transform="translate(632.836 78.187)">
        <path id="Path_15" data-name="Path 15" d="M124.639,77.635H-35.787c2.43,49.829,27.547,74.135,70.9,74.135,25.522,0,48.209-8.507,58.336-37.269h29.574c-13.775,46.586-49.424,63.2-89.125,63.2-57.934,0-100.47-34.839-100.47-108.974,0-76.973,44.564-110.192,98.445-110.192S125.854-7.845,125.854,62.646a71.572,71.572,0,0,1-1.215,14.99m-29.979-23.9c-.4-44.561-24.307-69.681-63.2-69.681-36.867,0-63.2,22.687-66.843,69.681Z" transform="translate(66.576 41.469)" fill="#1c1c1c"/>
      </g>
      <g id="Group_116" data-name="Group 116" transform="translate(861.737 80.619)">
        <path id="Path_16" data-name="Path 16" d="M75.259,1.32V28.869a98.255,98.255,0,0,0-15.395-1.218c-42.536,0-67.656,27.954-67.656,72.92v111H-40.2V.915H-7.791V47.909h.813C-1.309,26.032,18.544-.7,59.46-.7c5.267,0,10.94.4,15.8,2.025" transform="translate(40.2 0.705)" fill="#1c1c1c"/>
      </g>
      <g id="Group_117" data-name="Group 117" transform="translate(1007.182 -0.001)">
        <path id="Path_17" data-name="Path 17" d="M0,13.2C0,1.859,9.722-7.053,20.659-7.053A20.315,20.315,0,0,1,40.916,13.2,20.582,20.582,0,0,1,20.659,33.458C9.722,33.458,0,24.141,0,13.2m4.455,61.98H36.864V285.847H4.455Z" transform="translate(0 7.053)" fill="#1c1c1c"/>
      </g>
      <g id="Group_118" data-name="Group 118" transform="translate(1081.32 78.186)">
        <path id="Path_18" data-name="Path 18" d="M0,71.562C0-3.791,47.8-38.225,101.685-38.225c37.677,0,81.833,16.609,89.53,75.758H162.051c-6.08-35.247-33.222-48.616-60.771-48.616-40.916,0-70.491,28.359-70.491,82.645,0,53.473,29.574,81.428,70.491,81.428,27.954,0,54.691-12.962,60.771-49.424h29.164c-7.287,59.956-51.853,76.97-89.53,76.97C47.8,180.536,0,146.1,0,71.562" transform="translate(0 38.225)" fill="#1c1c1c"/>
      </g>
      <g id="Group_119" data-name="Group 119" transform="translate(1296.858 78.187)">
        <path id="Path_19" data-name="Path 19" d="M117.244,47V189.6H86.458V153.956H85.24c-4.863,10.124-26.734,39.7-78.185,39.7-40.511,0-69.681-18.229-69.681-57.121,0-36.864,25.927-53.476,70.9-59.554l46.178-6.075c21.472-2.835,30.387-7.292,30.387-13.37V47.408C84.838,11.355,65.8-.4,32.576-.4c-33.627,0-51.853,11.75-51.853,39.7v4.455H-50.066V36.471c0-42.134,30.789-61.578,83.857-61.578,56.311,0,83.453,21.469,83.453,72.11M84.838,83.462C83.62,87.92,75.115,91.565,56.883,94L15.559,99.67c-35.649,4.86-45.776,17.012-45.776,34.836,0,23.5,17.824,33.222,42.944,33.222,49.829,0,72.11-37.272,72.11-53.071Z" transform="translate(62.626 25.107)" fill="#1c1c1c"/>
      </g>
      <g id="Group_120" data-name="Group 120" transform="translate(1526.163 78.186)">
        <path id="Path_20" data-name="Path 20" d="M118.036,55.19V185.232H85.629V61.673c0-40.109-16.612-63.6-54.286-63.6-37.269,0-61.983,23.494-61.983,63.6V185.232H-63.049V-25.43H-30.64V12.246C-24.565-3.145-2.281-29.48,42.688-29.48c41.723,0,75.347,22.687,75.347,84.67" transform="translate(63.049 29.48)" fill="#1c1c1c"/>
      </g>
      <g id="Group_121" data-name="Group 121" transform="translate(1744.125 78.188)">
        <path id="Path_21" data-name="Path 21" d="M0,71.3C0-3.649,49.021-38.083,101.28-38.083S202.56-3.649,202.56,71.3,153.538,180.678,101.28,180.678,0,146.242,0,71.3m171.365,0c0-56.716-33.624-82.238-70.086-82.238-36.867,0-70.491,25.522-70.491,82.238s33.624,81.836,70.491,81.836c36.462,0,70.086-25.117,70.086-81.836" transform="translate(0 38.083)" fill="#1c1c1c"/>
      </g>
      <g id="Group_122" data-name="Group 122" transform="translate(1971.004 78.187)">
        <path id="Path_22" data-name="Path 22" d="M0,100.872H29.169c4.05,28.764,30.381,38.891,57.931,38.891,28.356,0,51.853-10.94,51.853-37.272,0-20.659-14.18-27.547-36.867-32.811l-39.7-9.317C25.12,51.449,6.887,32.409,6.887,4.05c0-37.272,31.6-57.931,78.188-57.931,46.181,0,77.78,20.254,80.618,62.388H138.146c-4.863-27.549-24.715-37.272-52.261-37.272-29.571,0-47.8,11.345-47.8,32,0,15.8,10.127,26.739,35.247,32.409l39.294,9.317c34.842,8.105,59.551,21.067,59.551,56.716,0,46.184-41.723,63.2-85.477,63.2-47.8,0-84.67-19.849-86.7-64.008" transform="translate(0 53.881)" fill="#1c1c1c"/>
      </g>
    </g>
    <g id="Group_124" data-name="Group 124" transform="translate(2174.258 -91.71)">
      <path id="Path_24" data-name="Path 24" d="M13.655,4.512H-7.294V-2.41H42.379V4.512H21.43V63.956H13.655Z" transform="translate(7.294 2.41)" fill="#1c1c1c"/>
    </g>
    <g id="Group_125" data-name="Group 125" transform="translate(2232.307 -91.709)">
      <path id="Path_25" data-name="Path 25" d="M37.946,0,13.576,56.222-10.88,0h-9.389V66.366H-12.5V14.412h.287L10.354,66.366H16.8L39.273,14.412h.287V66.366h7.864V0Z" transform="translate(20.269)" fill="#1c1c1c"/>
    </g>
  </g>
</svg>
